<?xml version="1.0" encoding="UTF-8"?> <svg xmlns="http://www.w3.org/2000/svg" version="1.1" viewBox="0 0 181.5 50"><defs><style> .cls-1 { fill: #0278aa; } .cls-2 { fill: #0277a9; } </style></defs><g><g id="Layer_1"><path class="cls-2" d="M31.4,37.7c-13.1,0-17.7-3-17.7-17.3,0-14.3,4.5-17.4,17.7-17.4,5.6,0,10.7.9,12.8,1.3.5.1.9.6.8,1.1l-.5,2.7c0,.5-.6.9-1.2.8-2.1-.3-6.8-1-11.3-1-11.2,0-12.4,2.4-12.3,12.6,0,9.8,1.1,12.7,12.2,12.7,4.5,0,9.4-.7,11.4-1,.6,0,1.1.3,1.2.8l.5,2.5c0,.5-.3,1-.8,1.1-2.1.4-7.3,1.3-12.8,1.3"></path><path class="cls-2" d="M.3,36.7v-1.8c0-.3.3-.6.6-.7l1.8-.3c.6-.1.8-.3.8-.9v-14.6c0-.7-.2-.8-.8-.9l-1.8-.3c-.4,0-.6-.4-.6-.7v-1.8c0-.4.4-.7.8-.7h7.2c.4,0,.8.3.8.7v18.4c0,.7.1.8.8.9l1.8.3c.4,0,.6.4.6.7v1.8c0,.4-.4.7-.8.7H1.1c-.4,0-.8-.3-.8-.7"></path><path class="cls-2" d="M103.3,36.5v-1.8c0-.3.3-.6.6-.7l1.8-.3c.6-.1.8-.3.8-.9v-14.6c0-.7-.2-.8-.8-.9l-1.8-.3c-.4,0-.6-.4-.6-.7v-1.8c0-.4.4-.7.8-.7h7.2c.4,0,.8.3.8.7v18.4c0,.7.1.8.8.9l1.8.3c.4,0,.6.4.6.7v1.8c0,.4-.4.7-.8.7h-10.4c-.4,0-.8-.3-.8-.7"></path><path class="cls-2" d="M173.5,34.1c-.1-.1-.3-.2-.5-.3,0,0,0,0,0,0l-1.8-.3c-.7,0-.8-.3-.8-.9h0V4.6c0-.4-.4-.7-.8-.7h-7.2c-.4,0-.8.3-.8.7v1.8c0,.3.3.6.6.7l1.8.3c.6,0,.8.3.8.9v23.1c0,1.1-.6,1.9-1.8,2-.2,0,.2,0,0,0s-1.3,0-1.4,0c-.2,0,.1,0,0,0-1.2,0-1.8-1-1.8-2v-11c0-3.2-1-5-3.2-6.1-2-1-4.9-1.3-8.9-1.3-5.4,0-9.7.8-11.3,1.1-.4,0-.7.5-.6.8l.5,2.4c0,.4.5.7.9.6,1.6-.3,5.6-1,9.7-1,2.3,0,4,0,5.2.6,1.7.6,2.3,1.8,2.3,3.7,0,.5-.4.8-.9.8h-10c-7.1.2-9.3,2-9.3,7.6,0,6,2.4,7.6,10.7,7.6,1.3,0,3.3-.1,4.4-.2.4,0,.8-.1,1.2-.3,1-.4,3.1-1.3,3.7-1.4.5,0,.8.2,1,.6,0,0,0,.2,0,.3,0,.3.4.6.8.6h5s1.3,0,1.3,0h10.7c.4,0,.8-.3.8-.7v-1.8c0-.2,0-.3-.2-.5M154.2,32c0,.3-.3.6-.6.7-1.5.2-5.1.8-8.3.8-4,0-5.6-.2-5.6-3.7,0-4.2,2-3.8,5.9-3.8l7.8-.2c.4,0,.8.3.8.7v5.4Z"></path><path class="cls-2" d="M127.7,37.4c-6.9,0-7.7-2.4-7.7-7.8v-11.5c0-.4-.4-.7-.8-.7h-3.8c-.4,0-.8-.3-.8-.7v-2.4c0-.4.3-.7.8-.7h3.8c.4,0,.8-.3.8-.7v-4.9c0-.4.3-.7.8-.7h4c.4,0,.8.3.8.7v4.9c0,.4.4.7.8.7h6.2c.4,0,.8.3.8.7v2.4c0,.4-.3.7-.8.7h-6.2c-.4,0-.8.3-.8.7v12.3c0,2.6.4,3.4,3.6,3.4.8,0,2.1-.2,2.9-.3.4,0,.8.2.9.6l.3,2.1c0,.4-.2.7-.6.8-1,.2-2.9.6-4.9.6"></path><path class="cls-2" d="M68,37.3c-.4,0-.8-.2-.9-.6-.1-.5-.4-1-1-.9-.6,0-2.7,1-3.7,1.4-.4.2-.8.3-1.2.3-1,0-3,.2-4.4.2-8.3,0-10.7-1.6-10.7-7.6,0-5.7,2.1-7.4,9.3-7.5h9.8c.8-.1,1.1-.5,1.1-1.1,0-1.8-.6-3-2.3-3.6-1.2-.5-2.9-.6-5.2-.5-4,0-7.9.7-9.6,1-.5,0-.9-.2-1-.6l-.5-2.3c0-.4.2-.8.6-.9,1.7-.4,5.9-1.1,11.3-1.1,4,0,7,.3,8.9,1.3,2.2,1.1,3.2,2.9,3.2,6.1v12c0,.7.1.8.8.9l1.7.3c.4,0,.7.4.7.8v1.8c0,.4-.4.8-.8.8h-6.3M66.4,26.8c0-.4-.4-.8-.9-.8l-7.7.2c-3.9,0-6-.4-5.9,3.8,0,3.5,1.6,3.7,5.6,3.7,3.2,0,6.8-.6,8.2-.8.4,0,.7-.4.7-.8v-5.3Z"></path><path class="cls-2" d="M91,13.4c-.8,0-1.8,0-2.5,0-1.1,0-1.9.2-2.5.4l-1.8.7c-.6.2-1.5.6-2,.6-.6,0-.8-1-.8-1-.2-.4-.4-.5-.9-.5h-5.9c-.3,0-.8.3-.8.7v1.9c0,.3.3.6.7.7l1.8.3c.6.1.8.2.8.9v23.2s0,0,0,0c0,.7-.2.8-.8.9l-1.8.3c-.4,0-.6.4-.6.7v1.8c0,.4.4.7.8.7h10.4c.4,0,.8-.3.8-.7v-1.8c0-.3-.3-.6-.6-.7l-1.8-.3c-.7-.1-.8-.3-.8-.9h0s0-4,0-4c0-.3.3-.6.7-.5,1.2.3,3.8.7,6.5.7,9.9,0,12.1-3.5,12.1-12.3,0-8.7-2.2-12.1-11-12M89.4,33.7c-2.7,0-4.9-.2-6-.4-.4,0-.8-.4-.8-.8v-13.7c0-.4.3-.8.8-.8,1.2-.2,3.8-.5,6.2-.5,5.6,0,6.7,1.6,6.8,8.1,0,6.9-1.2,8.2-6.9,8.2Z"></path><path class="cls-2" d="M105.3,9.1v-4.5c0-.4.4-.7.8-.7h5.2c.4,0,.8.3.8.7v4.5c0,.4-.3.7-.8.7h-5.2c-.4,0-.8-.3-.8-.7"></path><path class="cls-2" d="M2.3,9.1v-4.5c0-.4.3-.7.8-.7h5.2c.4,0,.8.3.8.7v4.5c0,.4-.3.7-.8.7H3.1c-.4,0-.8-.3-.8-.7"></path><path class="cls-1" d="M177.3,34.2h1c.3,0,.5,0,.6.2.1.1.2.3.2.5h0c0,.3-.2.6-.4.7l.5.7h-.5l-.4-.7h-.4v.7h-.5v-2.1M178.3,35.2c.2,0,.4-.1.4-.3h0c0-.2-.1-.3-.4-.3h-.5v.6h.5Z"></path><path class="cls-1" d="M178.1,33.6c.9,0,1.6.7,1.6,1.6s-.7,1.6-1.6,1.6-1.6-.7-1.6-1.6.7-1.6,1.6-1.6M178.1,33.1c-1.2,0-2.1,1-2.1,2.1s1,2.1,2.1,2.1,2.1-1,2.1-2.1-1-2.1-2.1-2.1Z"></path></g></g></svg> 